<svg width="138" height="30" viewBox="0 0 138 30" fill="none" xmlns="http://www.w3.org/2000/svg">
<g clip-path="url(#clip0_27:20)">
<path d="M83.6217 20.8869C83.6217 20.8869 83.3303 22.9441 82.4328 23.8474C81.2964 25.0362 80.026 25.0421 79.4432 25.112C75.2706 25.415 69.0058 25.415 69.0058 25.415H68.9941C68.9941 25.415 62.7294 25.415 58.5567 25.112C57.974 25.0421 56.7035 25.0362 55.5671 23.8474C54.6697 22.9441 54.3841 20.8869 54.3841 20.8869C54.3841 20.8869 54.0811 18.4684 54.0811 16.0557V13.7946C54.0811 11.3819 54.3783 8.96343 54.3783 8.96343C54.3783 8.96343 54.6697 6.90625 55.5613 6.00296C56.6977 4.81411 58.1896 4.8549 58.8539 4.72669C61.2433 4.49941 69 4.42948 69 4.42948C69 4.42948 75.2706 4.44114 79.4432 4.73835C80.026 4.80828 81.2964 4.81411 82.4328 6.00296C83.3303 6.90625 83.6217 8.96343 83.6217 8.96343C83.6217 8.96343 83.9189 11.3761 83.9189 13.7946V16.0557C83.9189 18.4684 83.6217 20.8869 83.6217 20.8869ZM65.9171 11.0498V19.4358L73.9768 15.2282L65.9171 11.0498Z" fill="white"/>
</g>
<g clip-path="url(#clip1_27:20)">
<path d="M14.9189 27.1513C18.9051 27.1513 19.3771 27.1338 20.9448 27.0639C22.4017 26.9998 23.1884 26.755 23.7129 26.5511C24.4064 26.283 24.9076 25.9566 25.4263 25.438C25.9508 24.9135 26.2713 24.4181 26.5394 23.7246C26.7433 23.2001 26.9881 22.4076 27.0522 20.9565C27.1221 19.383 27.1396 18.9109 27.1396 14.9306C27.1396 10.9445 27.1221 10.4724 27.0522 8.90478C26.9881 7.44785 26.7433 6.66112 26.5394 6.13662C26.2713 5.44313 25.9449 4.94194 25.4263 4.42328C24.9018 3.89878 24.4064 3.57826 23.7129 3.31019C23.1884 3.10622 22.3959 2.86146 20.9448 2.79735C19.3713 2.72742 18.8992 2.70993 14.9189 2.70993C10.9328 2.70993 10.4607 2.72742 8.89307 2.79735C7.43615 2.86146 6.64941 3.10622 6.12492 3.31019C5.43142 3.57826 4.93024 3.90461 4.41157 4.42328C3.88708 4.94777 3.56655 5.44313 3.29848 6.13662C3.09451 6.66112 2.84975 7.45368 2.78564 8.90478C2.71571 10.4783 2.69823 10.9503 2.69823 14.9306C2.69823 18.9168 2.71571 19.3888 2.78564 20.9565C2.84975 22.4134 3.09451 23.2001 3.29848 23.7246C3.56655 24.4181 3.89291 24.9193 4.41157 25.438C4.93606 25.9625 5.43142 26.283 6.12492 26.5511C6.64941 26.755 7.44198 26.9998 8.89307 27.0639C10.4607 27.1338 10.9328 27.1513 14.9189 27.1513ZM14.9189 29.8379C10.8687 29.8379 10.3617 29.8204 8.77069 29.7505C7.18556 29.6805 6.09578 29.4241 5.15169 29.057C4.16681 28.6724 3.33345 28.1653 2.50591 27.332C1.67255 26.5044 1.16554 25.6711 0.780912 24.692C0.413767 23.7421 0.157348 22.6582 0.0874155 21.073C0.0174831 19.4762 0 18.9692 0 14.919C0 10.8687 0.0174831 10.3617 0.0874155 8.77075C0.157348 7.18561 0.413767 6.09583 0.780912 5.15174C1.16554 4.16686 1.67255 3.3335 2.50591 2.50597C3.33345 1.67843 4.16681 1.16559 5.14586 0.786793C6.09578 0.419647 7.17973 0.163231 8.76486 0.093298C10.3558 0.023365 10.8628 0.00588226 14.9131 0.00588226C18.9633 0.00588226 19.4704 0.023365 21.0613 0.093298C22.6465 0.163231 23.7362 0.419647 24.6803 0.786793C25.6594 1.16559 26.4927 1.67843 27.3203 2.50597C28.1478 3.3335 28.6606 4.16686 29.0394 5.14591C29.4066 6.09583 29.663 7.17978 29.7329 8.76492C29.8029 10.3559 29.8204 10.8629 29.8204 14.9131C29.8204 18.9634 29.8029 19.4704 29.7329 21.0614C29.663 22.6465 29.4066 23.7363 29.0394 24.6804C28.6723 25.6711 28.1653 26.5044 27.3319 27.332C26.5044 28.1595 25.671 28.6724 24.692 29.0512C23.7421 29.4183 22.6581 29.6747 21.073 29.7446C19.4762 29.8204 18.9692 29.8379 14.9189 29.8379Z" fill="white"/>
<path d="M14.9189 22.582C10.688 22.582 7.25549 19.1495 7.25549 14.9186C7.25549 10.6877 10.688 7.25517 14.9189 7.25517C19.1498 7.25517 22.5824 10.6877 22.5824 14.9186C22.5824 19.1495 19.1498 22.582 14.9189 22.582ZM14.9189 9.94757C12.1741 9.94757 9.94789 12.1738 9.94789 14.9186C9.94789 17.6635 12.1741 19.8896 14.9189 19.8896C17.6638 19.8896 19.89 17.6635 19.89 14.9186C19.89 12.1738 17.6638 9.94757 14.9189 9.94757Z" fill="white"/>
<path d="M24.6745 22.8857C24.6745 21.895 23.8703 21.0966 22.8854 21.0966C21.8947 21.0966 21.0963 21.9008 21.0963 22.8857C21.0963 23.8764 21.9005 24.6748 22.8854 24.6748C23.8703 24.6748 24.6745 23.8706 24.6745 22.8857Z" fill="white"/>
</g>
<path d="M120.455 17.3213C119.605 17.3213 118.934 16.5753 118.934 15.6653C118.934 14.7552 119.62 14.0093 120.455 14.0093C121.306 14.0093 121.977 14.7552 121.977 15.6653C121.992 16.5753 121.306 17.3213 120.455 17.3213ZM125.901 17.3213C125.05 17.3213 124.379 16.5753 124.379 15.6653C124.379 14.7552 125.065 14.0093 125.901 14.0093C126.751 14.0093 127.422 14.7552 127.422 15.6653C127.422 16.5753 126.751 17.3213 125.901 17.3213Z" fill="white"/>
<path d="M133.151 29.8379H113.16C111.474 29.8379 110.102 28.4654 110.102 26.7646V6.59422C110.102 4.89346 111.474 3.52092 113.16 3.52092H130.078L129.287 6.28092L131.197 4.50557L133.002 2.83465L136.21 5.34058e-05V26.7646C136.21 28.4654 134.837 29.8379 133.151 29.8379ZM127.393 10.3538C127.393 10.3538 126.856 10.9953 126.408 11.5622C128.362 12.1142 129.108 13.3376 129.108 13.3376C128.497 12.9348 127.915 12.6513 127.393 12.4573C126.647 12.1441 125.931 11.9352 125.229 11.8158C123.797 11.5473 122.484 11.6219 121.365 11.8308C120.515 11.9949 119.784 12.2336 119.172 12.4723C118.829 12.6065 118.456 12.7706 118.083 12.9795C118.038 13.0093 117.994 13.0243 117.949 13.0541C117.919 13.069 117.904 13.0839 117.889 13.0989C117.621 13.2481 117.472 13.3525 117.472 13.3525C117.472 13.3525 118.188 12.159 120.082 11.5921C119.635 11.0251 119.083 10.3538 119.083 10.3538C115.786 10.4582 114.532 12.6215 114.532 12.6215C114.532 17.4254 116.681 21.3192 116.681 21.3192C118.829 22.9304 120.873 22.8857 120.873 22.8857L121.022 22.7066C118.337 21.9309 117.099 20.7523 117.099 20.7523C117.099 20.7523 117.427 20.9313 117.979 21.1849C119.575 21.8861 120.843 22.0801 121.365 22.1248C121.455 22.1397 121.529 22.1546 121.619 22.1546C122.529 22.274 123.558 22.3038 124.633 22.1845C126.05 22.0204 127.572 21.6026 129.123 20.7523C129.123 20.7523 127.945 21.8712 125.408 22.647L125.617 22.8857C125.617 22.8857 127.661 22.9304 129.809 21.3192C129.809 21.3192 131.958 17.4254 131.958 12.6215C131.958 12.6215 130.69 10.4582 127.393 10.3538Z" fill="white"/>
<defs>
<clipPath id="clip0_27:20">
<rect width="29.8378" height="29.8378" fill="white" transform="matrix(1 0 0 -1 54.0811 29.8379)"/>
</clipPath>
<clipPath id="clip1_27:20">
<rect width="29.8378" height="29.8378" fill="white" transform="matrix(1 0 0 -1 0 29.8379)"/>
</clipPath>
</defs>
</svg>
